<svg xmlns="http://www.w3.org/2000/svg" viewBox="0 0 413.97 142"><defs><style>.cls-1{fill:none;}.cls-2{fill:#ff6b6b;}.cls-3{fill:#333;}</style></defs><title>Plan de travail 2</title><g id="Calque_1" data-name="Calque 1"><path class="cls-1" d="M280,120.83q20.58,0,21.59-26.06a25.48,25.48,0,0,1-4.09-1.42,58.85,58.85,0,0,0-5.49-2.3c-2.12-.68-4.39-.86-6.33.43-6.68,4.47-11.51,4.09-17.58.34-.28-.18-.56-.36-.85-.53-2.95-1.76-4.33-1.84-7.33-.11-.52.31-1.05.61-1.58.9Q258.4,120.82,280,120.83Z"/><path class="cls-2" d="M10.37,70.82v64H4.65V49.38h9.22L44.21,124.6h.32L74.8,49.38h9v85.48h-6V70.1q0-6.49.71-14h-.45L46,134.86H42.26L10.37,55.94H9.91Q10.36,62.77,10.37,70.82Z"/><path class="cls-2" d="M113.9,134.86h-6V49.38h6Z"/><path class="cls-2" d="M191.13,134.86l-11.89-30.14H144.49l-11.88,30.14H126l34.36-85.8h3.83l33.65,85.8ZM158.65,68.61l-12,30.72h30.53L165.6,68.54q-1.42-3.5-3.51-10.07A101.41,101.41,0,0,1,158.65,68.61Z"/><path class="cls-2" d="M284.57,86c1.63-1.1,3.71-1.25,6.18-.45a35.93,35.93,0,0,1,3.93,1.61l1.1.49c5.38,2.39,10.18,2.39,14.69,0a19.18,19.18,0,0,0,2.87-2l.86-.67a7.22,7.22,0,0,0,3-5.26,23.1,23.1,0,0,0-1.06-7.59,37.43,37.43,0,0,0-7-12.69c-2.93-3.69-6.18-7.3-9.33-10.79l-.64-.71c-2.64-2.92-5.53-5.94-9.45-8l-.56-.3c-3-1.59-6.07-3.25-10-3.1l-1.88.38c-1.37.27-2.79.55-4.16.89a42.89,42.89,0,0,0-19.06,10.64,79.9,79.9,0,0,0-16.2,21.52A17.44,17.44,0,0,0,236,74.82,16,16,0,0,0,237,85a9.93,9.93,0,0,0,2.51,3.53c3.15,2.49,7.12,2.14,10.92,1.56,4-.61,7.25-2.34,10.77-4.38,2.83-1.63,4.3-1.61,7.17.1l.64.4.14.08C274.81,89.79,279,89.72,284.57,86Z"/><path class="cls-2" d="M259,20.05a16.63,16.63,0,0,1,2.36-8.27,56.48,56.48,0,0,1,4.74-6.88,9.27,9.27,0,0,1,4.07-2.85c2.76-.84,5.2.19,7.37,1.81,3.15,2.36,4.14,5.56,5.17,8.74a16.76,16.76,0,0,1,.77,9.17c-1,4.31-4,6.71-9.08,7.64-4.79.88-9,.17-12.76-2.57-2.05-1.51-2.49-3.48-2.63-5.58C258.94,20.86,259,20.45,259,20.05Z"/><path class="cls-2" d="M308.39,7.25a8.29,8.29,0,0,1,7.5,4.36,20.36,20.36,0,0,1,2.72,8.25,62.45,62.45,0,0,1,.35,9.36c-.2,2.83-1.31,5.51-4.81,6.88a4,4,0,0,1-.88.32c-2.63.38-5.25.47-7.64-.76-1.69-.87-3.38-1.73-5-2.72a7.78,7.78,0,0,1-3.87-7.3,29.12,29.12,0,0,1,3.36-13,10.7,10.7,0,0,1,5.56-4.79A16.22,16.22,0,0,1,308.39,7.25Z"/><path class="cls-2" d="M246.65,37c.37,4.06-1.89,7.25-5.17,10.11a12.06,12.06,0,0,1-6.57,3A9.67,9.67,0,0,1,227.39,48a11.41,11.41,0,0,1-4.7-9.48A22.12,22.12,0,0,1,227.08,26a11,11,0,0,1,4.39-3.62c2.48-1.19,4.76-.67,6.94.52a16,16,0,0,1,6.47,7.17A12.32,12.32,0,0,1,246.65,37Z"/><path class="cls-2" d="M339.6,65c3.4-2,4.43-4.89,5-8a61.1,61.1,0,0,0,.81-7.15c.31-3.57-.65-6.91-3.9-9.33-1.93-1.44-3.39-2.23-4.95-2.23s-2.93.65-5,2a23.36,23.36,0,0,0-3.82,3.21c-3.05,3.2-5.59,6.61-5.46,10.54,0,3.54,1.41,6.2,3.58,8.76a10.41,10.41,0,0,0,8,3.65A11.42,11.42,0,0,0,339.6,65Z"/><path class="cls-3" d="M318.34,90.34a30.39,30.39,0,0,1-4.19,3,17.09,17.09,0,0,1-12.55,1.43q-1,26-21.59,26.06-21.63,0-21.66-28.75a30.58,30.58,0,0,1-10.47,4,22.23,22.23,0,0,1-8.44.09q1,18.28,10.4,28.5Q260.36,136,280,136t30.17-11.37q10.51-11.35,10.52-32.6c0-1.41,0-2.78-.11-4.13A9.81,9.81,0,0,1,318.34,90.34Z"/><path class="cls-3" d="M389.88,49.38V101.6q0,10-4,14.62t-13,4.61q-9,0-13-4.55t-4-14.55V49.38h-5.4c0,.32,0,.64-.05,1s-.07.82-.1,1.23a52.92,52.92,0,0,1-.8,6.49c-.75,3.7-2.28,8.33-7.47,11.3a17,17,0,0,1-4.23,1.7v33.39q0,14.63,9.06,23.09T372.53,136q16.25.19,25.92-8.45T408,104.72V49.38Z"/><polygon class="cls-3" points="353.98 14.01 369.78 32.32 377.81 32.32 365.89 14.01 353.98 14.01"/></g></svg>